<?xml version="1.0" encoding="UTF-8"?>
<!DOCTYPE svg PUBLIC "-//W3C//DTD SVG 1.1//EN" "http://www.w3.org/Graphics/SVG/1.1/DTD/svg11.dtd">
<!-- Creator: CorelDRAW 2020 (64 Bit) -->
<svg xmlns="http://www.w3.org/2000/svg" xml:space="preserve" width="72mm" height="20mm" version="1.1" style="shape-rendering:geometricPrecision; text-rendering:geometricPrecision; image-rendering:optimizeQuality; fill-rule:evenodd; clip-rule:evenodd"
viewBox="0 0 7200 2000"
 xmlns:xlink="http://www.w3.org/1999/xlink"
 xmlns:xodm="http://www.corel.com/coreldraw/odm/2003">
 <defs>
  <style type="text/css">
   <![CDATA[
    .fil1 {fill:#FCA802}
    .fil0 {fill:black;fill-rule:nonzero}
   ]]>
  </style>
 </defs>
 <g id="Camada_x0020_1">
  <metadata id="CorelCorpID_0Corel-Layer"/>
  <path class="fil0" d="M-6.8 342.67l0 -329.61 152.27 0c30.63,0 53.9,2.99 69.82,8.9 15.91,5.91 28.63,16.34 38.15,31.3 9.51,14.96 14.23,31.54 14.23,49.64 0,23.41 -7.92,43.12 -23.67,59.16 -15.76,16.03 -40.07,26.16 -73.01,30.54 12.07,5.52 21.19,11.04 27.42,16.42 13.28,11.66 25.84,26.31 37.59,43.88l59.42 89.77 -56.78 0 -45.42 -68.59c-13.2,-19.87 -24.15,-34.99 -32.71,-45.5 -8.64,-10.51 -16.32,-17.8 -23.12,-22.02 -6.71,-4.14 -13.68,-7.06 -20.71,-8.75 -5.12,-0.99 -13.52,-1.53 -25.27,-1.53l-52.63 0 0 146.39 -45.58 0zm45.58 -184.14l97.58 0c20.78,0 36.94,-2.07 48.61,-6.21 11.69,-4.07 20.56,-10.67 26.56,-19.8 6.08,-9.05 9.11,-18.87 9.11,-29.54 0,-15.57 -5.83,-28.46 -17.59,-38.51 -11.75,-10.06 -30.3,-15.04 -55.66,-15.04l-108.61 0 0 109.1zm300.95 184.14l0 -329.61 248.08 0 0 38.67 -202.5 0 0 101.28 189.54 0 0 38.67 -189.54 0 0 112.32 210.65 0 0 38.67 -256.23 0zm304.22 -105.88l42.71 -3.68c2,16.57 6.71,30.15 14.15,40.81 7.43,10.59 18.95,19.19 34.55,25.78 15.59,6.53 33.18,9.82 52.7,9.82 17.35,0 32.63,-2.45 45.9,-7.44 13.28,-4.98 23.12,-11.81 29.59,-20.48 6.49,-8.67 9.76,-18.11 9.76,-28.24 0,-10.28 -3.12,-19.26 -9.35,-27.01 -6.24,-7.67 -16.56,-14.11 -30.96,-19.41 -9.19,-3.37 -29.58,-8.74 -61.17,-16.03 -31.6,-7.29 -53.66,-14.12 -66.31,-20.56 -16.38,-8.29 -28.55,-18.57 -36.54,-30.77 -8.08,-12.2 -12.07,-25.93 -12.07,-41.05 0,-16.73 4.95,-32.3 14.79,-46.72 9.84,-14.51 24.15,-25.48 43.1,-33 18.88,-7.52 39.91,-11.27 63.02,-11.27 25.43,0 47.91,3.91 67.35,11.81 19.43,7.83 34.38,19.41 44.86,34.76 10.48,15.27 16.07,32.61 16.88,51.94l-43.67 3.22c-2.32,-20.79 -10.23,-36.52 -23.75,-47.11 -13.52,-10.66 -33.52,-15.96 -59.91,-15.96 -27.51,0 -47.58,4.84 -60.14,14.51 -12.55,9.66 -18.87,21.33 -18.87,34.98 0,11.82 4.47,21.56 13.35,29.23 8.8,7.6 31.6,15.5 68.54,23.48 36.95,8.06 62.3,15.04 76.06,21.02 19.91,8.83 34.71,19.95 44.23,33.53 9.51,13.51 14.23,29.08 14.23,46.73 0,17.57 -5.2,33.99 -15.67,49.49 -10.48,15.5 -25.44,27.54 -45.03,36.13 -19.6,8.6 -41.59,12.89 -66.14,12.89 -31.03,0 -57.03,-4.37 -77.98,-13.04 -21.03,-8.67 -37.42,-21.71 -49.34,-39.21 -12,-17.41 -18.23,-37.13 -18.87,-59.15zm422.26 105.88l0 -290.94 -113.24 0 0 -38.67 272.07 0 0 38.67 -113.25 0 0 290.94 -45.58 0zm132.51 0l131.8 -329.61 49.99 0 139.87 329.61 -51.74 0 -39.76 -99.9 -144.66 0 -37.28 99.9 -48.22 0zm98.85 -135.34l117.09 0 -35.84 -91.38c-10.79,-27.78 -18.95,-50.72 -24.63,-68.82 -4.71,21.48 -11.04,42.58 -18.95,63.45l-37.67 96.75zm483.92 -194.27l45.58 0 0 190.35c0,33.15 -3.92,59.47 -11.67,78.95 -7.84,19.42 -21.91,35.3 -42.23,47.5 -20.39,12.2 -47.02,18.33 -80.13,18.33 -32.07,0 -58.39,-5.29 -78.77,-15.95 -20.48,-10.67 -35.04,-26.01 -43.75,-46.19 -8.72,-20.18 -13.12,-47.73 -13.12,-82.64l0 -190.35 45.59 0 0 190.28c0,28.62 2.8,49.79 8.31,63.3 5.52,13.58 14.96,24.09 28.47,31.38 13.44,7.36 29.92,11.04 49.35,11.04 33.27,0 57.02,-7.28 71.18,-21.79 14.15,-14.57 21.19,-42.5 21.19,-83.93l0 -190.28zm122.44 329.61l0 -329.61 152.27 0c30.64,0 53.9,2.99 69.82,8.9 15.91,5.91 28.63,16.34 38.15,31.3 9.51,14.96 14.24,31.54 14.24,49.64 0,23.41 -7.93,43.12 -23.68,59.16 -15.76,16.03 -40.06,26.16 -73.01,30.54 12.07,5.52 21.19,11.04 27.42,16.42 13.28,11.66 25.84,26.31 37.59,43.88l59.42 89.77 -56.77 0 -45.43 -68.59c-13.2,-19.87 -24.15,-34.99 -32.71,-45.5 -8.64,-10.51 -16.32,-17.8 -23.12,-22.02 -6.71,-4.14 -13.67,-7.06 -20.71,-8.75 -5.12,-0.99 -13.52,-1.53 -25.27,-1.53l-52.62 0 0 146.39 -45.59 0zm45.59 -184.14l97.57 0c20.79,0 36.94,-2.07 48.62,-6.21 11.68,-4.07 20.55,-10.67 26.56,-19.8 6.07,-9.05 9.11,-18.87 9.11,-29.54 0,-15.57 -5.84,-28.46 -17.6,-38.51 -11.75,-10.06 -30.3,-15.04 -55.66,-15.04l-108.6 0 0 109.1zm262.31 184.14l131.8 -329.61 49.99 0 139.87 329.61 -51.74 0 -39.75 -99.9 -144.67 0 -37.28 99.9 -48.22 0zm98.85 -135.34l117.09 0 -35.84 -91.38c-10.79,-27.78 -18.95,-50.72 -24.63,-68.82 -4.71,21.48 -11.04,42.58 -18.95,63.45l-37.67 96.75zm258.4 135.34l0 -329.61 46.7 0 180.26 258.72 0 -258.72 43.66 0 0 329.61 -46.69 0 -180.27 -258.72 0 258.72 -43.66 0zm434.34 0l0 -290.94 -113.24 0 0 -38.67 272.07 0 0 38.67 -113.25 0 0 290.94 -45.58 0zm206.74 0l0 -329.61 248.08 0 0 38.67 -202.5 0 0 101.28 189.54 0 0 38.67 -189.54 0 0 112.32 210.65 0 0 38.67 -256.23 0z"/>
  <polygon class="fil0" points="-6.8,2006.37 -6.8,490.91 1058.8,490.91 1058.8,668.7 202.79,668.7 202.79,1140.7 944.08,1140.7 944.08,1318.49 202.79,1318.49 202.79,2006.37 "/>
  <polygon class="fil0" points="1886.25,2006.37 1886.25,490.91 2100.98,490.91 2929.78,1680.42 2929.78,490.91 3130.54,490.91 3130.54,2006.37 2915.81,2006.37 2087.02,816.86 2087.02,2006.37 "/>
  <path class="fil0" d="M3226.62 2006.37l0 -1515.46 544.19 0c122.81,0 216.58,7.06 281.29,21.52 90.46,20.11 167.67,56.44 231.65,108.65 83.47,67.73 145.61,153.8 186.79,258.93 41.55,105.12 62.15,225.41 62.15,360.52 0,115 -13.98,216.95 -41.93,305.84 -27.94,88.9 -63.98,162.62 -107.72,220.83 -44.14,58.2 -91.93,104.06 -144.15,137.22 -51.85,33.51 -114.72,58.91 -188.26,76.2 -73.9,17.28 -158.48,25.75 -254.08,25.75l-569.93 0zm209.59 -177.79l336.81 0c104.06,0 185.69,-9.17 244.88,-27.87 59.21,-18.7 106.27,-44.8 141.57,-78.66 49.28,-47.63 87.88,-111.83 115.45,-192.26 27.59,-80.43 41.56,-177.79 41.56,-292.44 0,-158.74 -27.21,-280.79 -81.26,-366.16 -54.05,-85.37 -119.87,-142.52 -197.46,-171.44 -55.89,-20.82 -145.97,-31.05 -270.25,-31.05l-331.3 0 0 1159.88z"/>
  <polygon class="fil0" points="4575.2,2006.37 4575.2,490.91 5715.8,490.91 5715.8,668.7 4784.78,668.7 4784.78,1134.35 5656.23,1134.35 5656.23,1312.14 4784.78,1312.14 4784.78,1828.58 5753.3,1828.58 5753.3,2006.37 "/>
  <path class="fil0" d="M5803.65 2006.37l0 -1515.46 700.1 0c140.83,0 247.83,13.76 321,40.92 73.17,27.17 131.64,75.14 175.4,143.93 43.75,68.79 65.45,144.98 65.45,228.23 0,107.6 -36.4,198.26 -108.85,271.98 -72.43,73.73 -184.21,120.29 -335.71,140.4 55.53,25.4 97.45,50.8 126.13,75.49 61.04,53.62 118.76,121 172.82,201.78l273.2 412.73 -261.07 0 -208.85 -315.37c-60.67,-91.36 -111.04,-160.86 -150.39,-209.18 -39.72,-48.33 -75.01,-81.84 -106.27,-101.25 -30.89,-19.05 -62.87,-32.45 -95.23,-40.21 -23.54,-4.59 -62.14,-7.06 -116.19,-7.06l-241.95 0 0 673.07 -209.59 0zm209.59 -846.62l448.6 0c95.6,0 169.87,-9.53 223.56,-28.58 53.68,-18.69 94.5,-49.03 122.07,-91.01 27.94,-41.63 41.92,-86.78 41.92,-135.81 0,-71.61 -26.84,-130.88 -80.89,-177.09 -54.06,-46.21 -139.37,-69.14 -255.92,-69.14l-499.34 0 0 501.63z"/>
  <path class="fil1" d="M1452.45 1032.59c-250.04,-2.95 -384.62,-329.39 -199.18,-488.44 52.26,-44.83 124.27,-72.57 203.6,-72.57 79.34,0 151.35,27.74 203.61,72.57 186.93,160.34 37.05,491.31 -208.03,488.44zm-98.81 -505.37c0.62,12.49 0.56,19.07 12.64,46.74 82.65,-49.31 107.85,-3.98 185.21,-9.81l4.21 -38.57c-30.31,-11.05 -63.71,-17.17 -98.83,-17.17 -36.82,0 -71.76,6.73 -103.23,18.81zm471.28 343.04c85.38,-258.54 -122.1,-486.91 -372.39,-486.33 -206.31,0.48 -372.09,153.11 -390.68,355.26 -12.21,132.62 78.02,280.36 209.89,349.32 201.13,105.18 481.49,-1.22 553.18,-218.25z"/>
  <path class="fil1" d="M1320.8 1575.29c-0.97,17.68 -0.66,37.89 0,61.89l0 166.67c-4.33,87.07 -3.53,204.08 131.72,203.68 156.55,-0.46 126.93,-142.89 123.09,-349.94l0 -71.27c0.71,-26.36 2.45,-43.86 0,-58.91l0 -373.41 -254.81 0 0 421.29z"/>
 </g>
</svg>
